<svg width="130" height="84" viewBox="0 0 130 84" fill="none" xmlns="http://www.w3.org/2000/svg">
<path d="M95.5126 42.8142C93.8247 42.1094 90.617 40.7287 86.6184 38.8179C86.4333 39.357 86.2137 39.8365 85.9498 40.2436C85.8082 40.4617 85.6609 40.6483 85.5105 40.8148C89.5204 42.8415 92.6058 44.5592 94.2052 45.4732C94.6429 45.7226 95.1208 45.8151 95.4531 45.7129C95.6687 45.647 95.7709 45.5166 95.8192 45.4185L96.4556 44.1256C96.5039 44.0274 96.5441 43.8665 96.4652 43.6557C96.3429 43.3307 95.9785 43.0081 95.5126 42.8142Z" fill="#1E1E1E"/>
<path d="M36.8191 14.724C36.8191 14.724 37.8578 14.4618 39.6841 15.4272L39.6608 15.4691L39.6624 15.4699L39.372 15.98L36.8191 14.724ZM40.6657 15.2446C40.4251 16.6751 44.3891 16.5351 44.3891 16.5351L43.4325 18.4789L39.656 16.593C40.0711 15.749 40.6657 15.2446 40.6657 15.2446ZM50.7234 2.0902C44.7061 8.53705 41.245 13.6443 41.245 13.6443C45.0795 7.30852 50.7234 2.0902 50.7234 2.0902ZM39.1861 22.957C39.7944 21.7204 40.3221 21.0422 40.7558 20.9408C41.0133 20.8805 41.2337 21.0301 41.5652 21.2843C41.8862 21.5305 42.286 21.8371 42.764 21.6408L42.8605 21.6013L43.2499 20.8105C44.5259 21.4147 45.8687 22.0487 47.2525 22.7012C47.584 21.8483 47.9469 21.0792 48.3226 20.3833L44.159 18.3349L44.3369 17.9728C45.8043 18.6953 47.1946 19.3832 48.5133 20.0397C48.6138 19.8619 48.7144 19.6849 48.8166 19.5176C47.4553 18.82 46.1342 18.1434 44.8775 17.5022L45.2661 16.7105L45.2387 16.6099C45.102 16.1127 44.6152 15.9824 44.2242 15.8778C43.8211 15.7708 43.5677 15.6879 43.4583 15.4465C43.274 15.041 43.4889 14.2091 44.0971 12.9733C46.1028 8.89589 50.5335 3.81033 50.5777 3.75964L50.618 3.6993L52.4379 -1.90735e-05L51.4861 0.74258C46.1068 4.94394 41.5426 11.8598 39.701 14.8689L38.6262 14.325C37.9037 13.9613 37.1426 13.8398 36.6405 14.008C36.4024 14.0877 36.2262 14.2317 36.1313 14.4248L35.4739 15.7603C35.379 15.9534 35.3725 16.1811 35.4546 16.4184C35.6276 16.9189 36.1884 17.4475 36.9181 17.7974L38.005 18.3172C36.7459 21.6126 34.0523 29.4497 34.008 36.2739L34 37.4815L35.8432 33.7138C35.8561 33.647 37.1812 27.032 39.1861 22.957Z" fill="#1E1E1E"/>
<path d="M91.1383 15.98L90.847 15.4699L90.8494 15.4691L90.8261 15.4272C92.6524 14.4618 93.6903 14.724 93.6903 14.724L91.1383 15.98ZM87.0769 18.4789L86.1211 16.5351C86.1211 16.5351 90.0851 16.6751 89.8437 15.2446C89.8437 15.2446 90.4391 15.749 90.8543 16.593L87.0769 18.4789ZM79.7869 2.0902C79.7869 2.0902 85.4308 7.30852 89.2645 13.6443C89.2645 13.6443 85.8041 8.53705 79.7869 2.0902ZM92.5052 18.3172L93.5921 17.7974C94.3211 17.4475 94.8818 16.9189 95.0556 16.4184C95.1377 16.1811 95.1312 15.9534 95.0363 15.7603L94.379 14.4248C94.2841 14.2317 94.1078 14.0877 93.8689 14.008C93.3669 13.8398 92.6066 13.9613 91.8841 14.325L90.8084 14.8689C88.9668 11.8598 84.4034 4.94394 79.0234 0.74258L78.0724 -1.90735e-05L79.8923 3.6993L79.9317 3.75964C79.9767 3.81033 84.4074 8.89589 86.4123 12.9733C87.0206 14.2091 87.2354 15.041 87.052 15.4465C86.9417 15.6879 86.6891 15.7708 86.2852 15.8778C85.8942 15.9824 85.4075 16.1127 85.2715 16.6099L85.2433 16.7105L85.6327 17.5022C84.3736 18.145 83.0509 18.8216 81.6872 19.5208C81.7918 19.6913 81.8916 19.8675 81.9913 20.0429C83.3116 19.3856 84.7035 18.6961 86.1726 17.9728L86.3504 18.3349L82.1893 20.3816C82.5883 21.1106 82.9463 21.8845 83.2722 22.6939C84.6512 22.0438 85.9891 21.4123 87.2603 20.8105L87.6489 21.6013L87.7463 21.6408C88.2242 21.8371 88.6232 21.5305 88.9451 21.2843C89.2765 21.0301 89.497 20.8805 89.7544 20.9408C90.1881 21.0422 90.7159 21.7204 91.3241 22.957C93.3291 27.032 94.6533 33.647 94.667 33.7138L96.5094 37.4815L96.5022 36.2739C96.4579 29.4497 93.7643 21.6126 92.5052 18.3172Z" fill="#1E1E1E"/>
<path d="M40.5347 40.3868C38.1114 41.4939 36.1796 42.3202 34.9978 42.8142C34.5319 43.0081 34.1667 43.3307 34.0452 43.6557C33.9655 43.8665 34.0066 44.0274 34.0548 44.1256L34.6904 45.4185C34.7387 45.5166 34.8417 45.647 35.0573 45.7129C35.3888 45.8151 35.8675 45.7226 36.3052 45.4732C37.4621 44.8119 39.3954 43.7305 41.8952 42.4151C41.1268 41.8334 40.6706 41.1544 40.5347 40.3868Z" fill="#1E1E1E"/>
<path d="M81.898 24.1237C82.1209 24.7383 82.3003 25.3562 82.466 25.9556C82.7854 27.1592 82.9785 28.3049 83.1064 29.2897C83.2376 30.2752 83.2762 31.1023 83.302 31.68C83.3221 32.2585 83.3164 32.5891 83.3164 32.5891C83.3164 32.5891 83.2979 32.2585 83.2488 31.6832C83.2022 31.108 83.1113 30.2873 82.956 29.3114C82.8072 28.3347 82.5658 27.2059 82.2391 26.0176C82.0702 25.4254 81.8867 24.8148 81.6599 24.2089C81.4386 23.6015 81.19 22.9933 80.9052 22.4027C80.6349 21.805 80.3203 21.2281 79.9936 20.6713C79.6565 20.121 79.3074 19.59 78.9268 19.1065C78.5543 18.6181 78.1609 18.1716 77.7771 17.7597C77.5752 17.5626 77.3797 17.3703 77.1898 17.1844C76.9902 17.009 76.798 16.8401 76.6129 16.6776C76.419 16.5255 76.2332 16.3791 76.0562 16.2407C75.8784 16.1039 75.7006 15.9864 75.5372 15.8682C75.213 15.6316 74.9041 15.4659 74.6619 15.3082C74.1566 15.029 73.8678 14.8689 73.8678 14.8689C73.8678 14.8689 73.9426 14.9043 74.0826 14.9703C74.2218 15.0387 74.4302 15.1296 74.6876 15.2616C74.937 15.4088 75.2556 15.5617 75.5928 15.7845C75.7625 15.8947 75.9468 16.0049 76.1334 16.1345C76.316 16.2688 76.5083 16.4112 76.7087 16.5585C76.9001 16.7178 77.0997 16.8835 77.3064 17.0549C77.5044 17.2375 77.7079 17.4258 77.9179 17.6197C78.1142 17.8272 78.3234 18.0332 78.5245 18.2569C78.7192 18.4846 78.9276 18.7115 79.1135 18.9625C79.5037 19.4492 79.8633 19.9851 80.2101 20.5402C80.5472 21.1018 80.8722 21.6835 81.1506 22.2869C81.4338 22.8895 81.68 23.5074 81.898 24.1237ZM78.5527 32.5811C77.7996 32.5183 77.0056 32.4363 76.1809 32.3276C75.0923 32.1804 73.9491 31.997 72.7881 31.7395C71.6271 31.4821 70.4485 31.1409 69.3237 30.6638C69.2191 30.6204 69.1161 30.5729 69.0131 30.5263C68.808 30.2197 68.5666 29.8392 68.3148 29.3983C68.1458 29.1046 67.9729 28.7836 67.8015 28.4401C67.2029 27.2373 66.6309 25.7537 66.3951 24.1599C66.3613 23.9314 66.3348 23.7013 66.3155 23.4696C66.2584 22.7744 66.272 22.0632 66.3791 21.3496C66.5786 20.0205 66.968 18.9512 67.4692 18.0912C68.0549 17.0871 68.7943 16.3686 69.5659 15.8529C69.8965 15.6324 70.2337 15.449 70.5667 15.2978C70.6158 15.3211 78.2325 18.9786 78.5527 32.5811ZM68.4516 37.7085C67.9302 37.698 67.4065 37.6634 66.8738 37.6763C66.6083 37.6779 66.3412 37.6795 66.0733 37.6811C65.8102 37.6892 65.5455 37.6972 65.2809 37.7053C64.7507 37.7262 64.218 37.7479 63.6854 37.7696C63.6396 37.7712 63.5929 37.7736 63.547 37.7761C63.7562 37.2362 63.8874 36.6376 63.938 35.9755C63.963 35.6448 63.9686 35.2988 63.9525 34.9368C63.8753 33.1274 63.2831 30.9253 62.1318 28.2993C62.0168 27.9903 61.8816 27.695 61.7296 27.4126C61.7288 27.4102 61.7271 27.4078 61.7263 27.4054V27.4062C60.1921 24.5646 56.9095 23.1397 53.6825 23.8799C52.7234 24.1003 51.9165 24.3465 51.2374 24.6161C51.1691 24.6329 51.0999 24.6474 51.0315 24.6667C50.1706 24.9089 49.3918 25.3337 48.7248 25.9122C48.5028 26.1045 48.2936 26.3144 48.0973 26.5397C48.1753 26.1785 48.2598 25.8285 48.3515 25.4874C49.7209 20.3793 52.536 17.5416 54.3494 16.1771C54.2746 16.3445 54.2006 16.515 54.1258 16.692C54.0131 16.9776 53.8981 17.2721 53.7983 17.5778C53.6921 17.8803 53.6044 18.1957 53.5191 18.5095C53.4395 18.8249 53.3631 19.1411 53.3092 19.4565C53.2416 19.7686 53.2134 20.084 53.1692 20.3841C53.1386 20.6786 53.1112 20.9666 53.0766 21.2321C53.0396 21.5 53.0018 21.7543 52.9567 21.9868C52.8691 22.451 52.7653 22.834 52.6719 23.0946C52.581 23.3561 52.499 23.4937 52.499 23.4937C52.499 23.4937 52.5054 23.4856 52.5167 23.4704C52.5505 23.4229 52.6309 23.3062 52.7275 23.118C52.857 22.8694 53.0155 22.4993 53.1692 22.0423C53.2464 21.8138 53.3212 21.5636 53.396 21.2965C53.4692 21.027 53.5376 20.7462 53.606 20.4541C53.6784 20.1693 53.7348 19.8732 53.8305 19.5812C53.9126 19.2851 54.0163 18.9914 54.1233 18.7002C54.2352 18.4098 54.3478 18.1209 54.4782 17.8441C54.6013 17.565 54.7388 17.2979 54.8724 17.0404C55.0124 16.7862 55.1467 16.5408 55.2867 16.3155C55.4219 16.0878 55.5627 15.8794 55.6906 15.688C55.9457 15.3106 56.1782 15.0129 56.3447 14.8086C56.4598 14.7008 56.6054 14.5712 56.7808 14.4256C56.8685 14.3524 56.9626 14.2768 57.0648 14.1971C57.9836 13.4843 59.4857 12.5382 61.4818 12.0224C61.9251 11.909 62.3933 11.8157 62.8849 11.7505C63.3757 11.6861 63.8906 11.6499 64.4272 11.6499C67.1297 11.6499 68.985 12.2807 70.1556 12.897C69.9778 12.9605 69.7887 13.0249 69.5876 13.1126C69.4589 13.1657 69.3245 13.222 69.1861 13.2791C69.051 13.3427 68.911 13.4087 68.767 13.4762C68.4765 13.605 68.1877 13.7788 67.8828 13.9397C67.5875 14.1215 67.2793 14.3017 66.9849 14.5125C66.6928 14.7273 66.3887 14.9333 66.1168 15.1811L65.7 15.5375C65.5713 15.667 65.4442 15.7966 65.3171 15.9245C65.194 16.0556 65.0596 16.1715 64.9502 16.3115C64.8391 16.4474 64.7297 16.5818 64.6211 16.7138C64.5085 16.8409 64.4087 16.9752 64.3154 17.1104C64.2229 17.2448 64.136 17.3799 64.0507 17.5095C63.9662 17.639 63.8833 17.7653 63.8037 17.8868C63.7361 18.0163 63.6718 18.1418 63.609 18.2617C63.4891 18.5039 63.3644 18.7163 63.2807 18.9182C63.2027 19.1218 63.1351 19.2996 63.0788 19.446C62.967 19.7357 62.9034 19.9022 62.9034 19.9022C62.9034 19.9022 62.9863 19.7445 63.1319 19.4693C63.2043 19.3326 63.292 19.166 63.3926 18.9745C63.4971 18.7871 63.646 18.5924 63.79 18.3719C63.864 18.2633 63.9413 18.1499 64.0209 18.0324C64.1126 17.923 64.2068 17.8112 64.3041 17.6961C64.4988 17.466 64.6951 17.2182 64.9413 17.0002C65.058 16.8867 65.1779 16.7717 65.2985 16.6558C65.416 16.5376 65.5592 16.441 65.6896 16.3316C65.8223 16.2254 65.9567 16.1184 66.091 16.0114L66.5223 15.7242C66.8022 15.5238 67.1112 15.3653 67.4049 15.1988C67.7009 15.0363 68.0091 14.9035 68.2987 14.7684C68.6004 14.6533 68.882 14.5254 69.1644 14.4393C69.3036 14.3934 69.4387 14.3484 69.5699 14.3041C69.7026 14.2679 69.8306 14.2317 69.9537 14.1971C69.9617 14.1947 69.969 14.1931 69.977 14.1915C69.5763 14.3492 69.1403 14.5358 68.6704 14.7692C67.9431 15.1312 67.1418 15.5962 66.3445 16.223C65.5512 16.8497 64.7523 17.6382 64.1094 18.6326C63.4618 19.6198 62.9847 20.8178 62.8181 22.1131C62.6484 23.4068 62.7964 24.7826 63.2478 26.0723C63.6975 27.3636 64.457 28.5599 65.4192 29.5552C66.3742 30.5568 67.5827 31.3292 68.804 31.8578C70.0277 32.396 71.2723 32.7685 72.484 33.0542C74.361 33.4991 76.1584 33.7396 77.786 33.8949C76.0151 33.812 73.8694 33.6069 71.7663 33.1459C71.1404 33.0131 70.5225 32.8474 69.9175 32.6704C69.3181 32.4813 68.7307 32.281 68.1796 32.0469C67.9045 31.9278 67.6301 31.816 67.3759 31.6824C67.2463 31.618 67.1184 31.5545 66.9921 31.4917C66.8698 31.4217 66.7491 31.3533 66.6301 31.2858C66.511 31.2166 66.3935 31.1482 66.2785 31.0814C66.1675 31.0066 66.058 30.9342 65.951 30.8618C65.8448 30.7885 65.7354 30.7218 65.6365 30.6461C65.5383 30.5689 65.4417 30.4925 65.3476 30.4185C65.2543 30.3428 65.1586 30.2728 65.0717 30.198C64.988 30.1192 64.9059 30.0419 64.8263 29.9671C64.7458 29.8923 64.6678 29.8191 64.5913 29.7475C64.5173 29.6742 64.4546 29.5954 64.3886 29.523C64.2623 29.3734 64.1287 29.2422 64.0314 29.103C63.9316 28.9646 63.8407 28.8375 63.7586 28.7225C63.6709 28.609 63.6114 28.4972 63.5583 28.4006C63.5044 28.3041 63.4577 28.222 63.4207 28.1553C63.3459 28.0217 63.3065 27.9509 63.3065 27.9509C63.3065 27.9509 63.3387 28.0257 63.399 28.1657C63.4296 28.2365 63.4666 28.3234 63.5108 28.4256C63.5535 28.5286 63.6025 28.6476 63.6782 28.7699C63.7498 28.8954 63.8286 29.0338 63.9139 29.1851C63.9992 29.3371 64.1191 29.4828 64.2333 29.6493C64.2929 29.7298 64.3492 29.8191 64.4176 29.9011C64.4875 29.9824 64.56 30.0661 64.634 30.1505C64.708 30.2366 64.7844 30.3251 64.8625 30.4152C64.9437 30.5021 65.0338 30.5842 65.1223 30.6719C65.2116 30.7596 65.3034 30.8481 65.3967 30.9382C65.4908 31.0275 65.5962 31.1079 65.6984 31.1948C65.8022 31.2817 65.9076 31.3694 66.0146 31.4579C66.1264 31.54 66.2407 31.6237 66.3557 31.7081C66.4724 31.791 66.589 31.8787 66.7105 31.9616C66.8344 32.0396 66.9599 32.1193 67.0871 32.1997C67.3381 32.3671 67.6084 32.5127 67.8811 32.6656C68.4282 32.9681 69.0148 33.2392 69.6166 33.5007C70.2232 33.7477 70.8459 33.9874 71.4791 34.1926C74.0102 35.0301 76.6379 35.5 78.6155 35.7575C78.9075 35.7961 79.1835 35.8291 79.4457 35.8588C79.3629 36.8701 79.2076 38.0633 78.918 39.151C78.0265 38.9604 76.8414 38.723 75.4415 38.4897C74.6482 38.3569 73.7873 38.2226 72.8718 38.1075C71.9586 37.9852 70.9891 37.8863 69.9851 37.8026C69.4822 37.7656 68.9697 37.735 68.4516 37.7085ZM47.8656 36.0793C47.8205 36.0551 47.773 36.0302 47.732 36.0093C47.7714 35.9924 47.7964 35.9819 47.7964 35.9819V35.9811C47.8197 36.0141 47.843 36.0463 47.8656 36.0793ZM51.3259 25.711C51.7652 25.5871 52.2101 25.5276 52.6502 25.5276C53.2762 25.5276 53.8957 25.6475 54.4854 25.8711C54.7799 25.983 55.0671 26.1214 55.3439 26.2839C56.7277 27.0949 57.8524 28.5125 58.3561 30.2986C58.5926 31.1385 58.6699 31.9809 58.6063 32.7846C58.5902 32.9858 58.5653 33.1845 58.5323 33.3792C58.4655 33.7702 58.3649 34.1492 58.2338 34.5112C58.1019 34.8724 57.9385 35.2168 57.7454 35.5386C57.0712 36.6658 56.0406 37.5194 54.7565 37.8815C54.3173 38.0054 53.8731 38.0649 53.4323 38.0649C50.9277 38.0649 48.5317 36.1525 47.7264 33.2939C46.7794 29.9333 48.3909 26.5389 51.3259 25.711ZM61.411 41.0409C60.9306 41.0739 60.4101 41.1182 59.859 41.1487C59.3079 41.1841 58.727 41.2195 58.1252 41.2477C57.5234 41.2815 56.9015 41.3024 56.2683 41.3257C55.6367 41.3523 54.9939 41.3571 54.351 41.374C53.7082 41.3772 53.0654 41.3812 52.4322 41.3845C51.799 41.3724 51.1763 41.3611 50.5737 41.3507C49.9719 41.3241 49.3886 41.308 48.8367 41.2758C48.2847 41.2372 47.7634 41.201 47.2823 41.168C46.8019 41.1182 46.3619 41.0723 45.9717 41.0321C45.5799 40.9991 45.2444 40.9347 44.9644 40.8977C44.546 40.8366 44.262 40.7947 44.1461 40.7778C44.1075 40.7722 44.0874 40.769 44.0874 40.769C44.0874 40.769 44.4036 40.8325 44.9563 40.9436C45.2339 40.9951 45.5678 41.0771 45.9572 41.131C46.3466 41.1922 46.785 41.2614 47.263 41.3362C47.7441 41.3949 48.2646 41.4593 48.8157 41.5261C49.3677 41.588 49.951 41.6355 50.5544 41.6926C51.1586 41.7361 51.7837 41.7803 52.4177 41.8254C53.0533 41.8559 53.6993 41.8857 54.3446 41.9163C54.9907 41.9332 55.6367 41.9629 56.2731 41.9694C56.7944 41.9782 57.3061 41.9855 57.8082 41.9879C57.1018 42.0619 56.4026 42.1126 55.7236 42.1287C55.5168 42.1295 55.3085 42.1311 55.1025 42.1311C49.4892 42.1311 44.2813 41.7135 43.2289 41.0119C42.8532 40.7617 42.6231 40.5188 42.5057 40.2838C42.4276 40.1278 42.3987 39.9749 42.4107 39.8252C42.4743 39.0022 43.7495 38.287 44.6015 37.6884C45.7898 36.8541 47.2959 36.1935 47.6934 36.0254C47.7642 36.068 47.8406 36.1147 47.9259 36.1653C48.5695 37.056 49.3773 37.7841 50.2856 38.2982C50.5133 38.4261 50.7467 38.5412 50.9856 38.6417C51.7017 38.9443 52.466 39.118 53.2504 39.1414L53.2496 39.1486C53.2496 39.1486 53.8168 39.1832 54.656 39.213C55.4975 39.2444 56.6183 39.2717 57.7374 39.2765C58.8573 39.2838 59.9757 39.2669 60.8132 39.2411C61.2324 39.2291 61.5807 39.2146 61.8245 39.2033C62.0683 39.1929 62.2075 39.1864 62.2075 39.1864C62.2075 39.1864 62.0691 39.1719 61.8261 39.1454C61.5839 39.1197 61.2372 39.081 60.8228 39.0295C60.1599 38.9483 59.3215 38.8348 58.451 38.7029C60.1575 38.7343 61.9299 38.7214 63.7015 38.7463C64.2301 38.756 64.7579 38.7649 65.2841 38.7737C65.5471 38.7809 65.8102 38.7882 66.0725 38.7954C66.33 38.8075 66.5874 38.8196 66.8433 38.8324C67.3542 38.8477 67.8634 38.9089 68.3647 38.9459C68.7991 38.9917 69.2272 39.0416 69.6511 39.0939C68.5296 39.4922 66.4595 40.1841 64.0274 40.8092C63.477 40.8655 62.5631 40.9524 61.411 41.0409ZM76.9959 15.1706C75.6475 14.1746 74.1389 13.4022 72.4832 12.8664C72.0157 12.4416 71.0229 11.6805 69.4009 11.0964C69.2207 11.0312 69.0333 10.9685 68.837 10.9089C67.6623 10.5493 66.2021 10.2943 64.4272 10.2943C62.5084 10.2943 60.8478 10.703 59.4784 11.2573C58.3368 11.7191 57.3979 12.2823 56.6802 12.7932C55.9617 13.3041 55.4653 13.7635 55.2095 14.0185C54.6358 14.3178 53.2054 15.1553 51.6502 16.7636C51.6244 16.7902 51.5987 16.8224 51.5737 16.8489C51.0789 17.3671 50.5737 17.9568 50.0797 18.6382C48.8125 20.3865 47.4826 22.9289 46.7553 26.4062C46.2452 28.8415 46.028 31.7307 46.3442 35.1452C46.1133 35.2554 45.8469 35.3898 45.5702 35.5338C45.0086 35.8274 44.3891 36.1806 43.8219 36.5781C43.7825 36.6062 43.7374 36.636 43.6964 36.6634C43.6087 36.7245 43.521 36.784 43.4277 36.8468C42.3681 37.5596 41.0486 38.4462 41.051 39.8928C41.0526 40.7553 41.5321 41.5116 42.4759 42.1407C42.7108 42.2968 43.0447 42.4352 43.455 42.5575C44.686 42.9244 46.6008 43.1472 48.5591 43.2832C51.1707 43.4634 53.8579 43.4875 55.1025 43.4875C60.95 43.4875 66.0999 43.0531 68.878 42.3242C69.2103 42.2373 69.5232 42.1512 69.8258 42.0675C70.4951 41.8825 71.0937 41.7063 71.6472 41.5422C71.7454 41.5132 71.8484 41.4826 71.9433 41.4545C73.9482 40.8583 75.2725 40.4641 77.0023 40.4641C78.4586 40.4641 80.2599 40.7416 82.845 41.3635C82.9198 41.3812 82.9954 41.3933 83.0727 41.3981C83.1024 41.3997 83.1443 41.4014 83.174 41.4014C83.491 41.4014 84.5941 41.296 85.475 39.9363C86.1066 38.962 86.4944 37.5661 86.6489 35.6987C86.7004 35.076 86.7261 34.401 86.7261 33.672C86.7261 32.9222 86.1187 32.3156 85.3696 32.3156H84.6657C84.6375 31.5078 84.5619 30.4016 84.3784 29.1183C84.1942 27.8351 83.9021 26.3748 83.4395 24.8582C83.2577 24.2604 83.0517 23.6876 82.8337 23.1284C82.6945 22.7712 82.5473 22.422 82.3936 22.0801C82.17 21.5837 81.9366 21.0977 81.6832 20.6359C80.4571 18.3993 78.8834 16.5657 76.9959 15.1706Z" fill="#1E1E1E"/>
<path d="M50.4176 36.7727C51.0967 37.249 51.8892 37.5781 52.7098 37.6843C52.915 37.71 53.1185 37.7358 53.3245 37.7277C53.4275 37.7253 53.528 37.7294 53.6318 37.7221L53.9456 37.6859C54.1644 37.6674 54.3318 37.6143 54.5152 37.5733L54.6689 37.5355L54.8081 37.4848L55.0856 37.3842C55.8178 37.097 56.4268 36.6126 56.8806 36.0728C57.3392 35.5337 57.6513 34.9351 57.8388 34.3591C58.0311 33.7838 58.114 33.2343 58.1357 32.7492C58.1413 32.5062 58.1405 32.2793 58.126 32.071C58.1003 31.8634 58.0882 31.6719 58.056 31.5021C58.0214 31.3332 57.9892 31.1819 57.9619 31.0508C57.9297 30.9221 57.8911 30.8159 57.8653 30.7282C57.8114 30.5528 57.7825 30.4602 57.7825 30.4602C57.7825 30.4602 57.7986 30.556 57.8275 30.737C57.8404 30.8271 57.8637 30.9382 57.8782 31.0693C57.8887 31.2004 57.8999 31.3501 57.9136 31.5182C57.9249 31.6856 57.9152 31.8738 57.9168 32.075C57.9048 32.2769 57.8887 32.4949 57.8605 32.7242C57.7945 33.1844 57.6642 33.6913 57.451 34.2119C57.2362 34.7316 56.9087 35.2521 56.4783 35.7132C56.0463 36.175 55.4903 36.5579 54.8547 36.7904L54.6126 36.8693L54.4911 36.9087L54.3736 36.9328C54.1942 36.9666 54.0011 37.0181 53.8434 37.0197L53.5948 37.0399C53.5103 37.0431 53.421 37.0358 53.3341 37.035C53.1587 37.0382 52.9842 37.0157 52.8088 36.9908C52.1072 36.8942 51.4233 36.6022 50.8336 36.1782C50.2374 35.763 49.7265 35.2208 49.3379 34.6117C48.9517 33.9979 48.671 33.3397 48.5149 32.6486C48.3628 31.976 48.3178 31.3034 48.3813 30.6646C48.4457 30.029 48.6066 29.4377 48.8319 28.9236C49.0539 28.4062 49.358 27.9798 49.6597 27.6331C49.9606 27.2815 50.2889 27.0393 50.5633 26.847C50.8489 26.6732 51.0822 26.5397 51.2528 26.4777C51.4209 26.4061 51.511 26.3675 51.511 26.3675C51.511 26.3675 51.4169 26.3924 51.2399 26.4399C51.0597 26.4801 50.8054 26.5735 50.4917 26.7215C50.1883 26.8848 49.8126 27.0956 49.4618 27.4384C49.107 27.7714 48.7361 28.1979 48.4578 28.7385C48.1713 29.2735 47.9469 29.9035 47.8431 30.5962C47.7361 31.2833 47.7393 32.0404 47.8922 32.7951C48.0386 33.532 48.3121 34.3012 48.745 34.985C49.1722 35.6713 49.7402 36.2924 50.4176 36.7727Z" fill="#1E1E1E"/>
<path d="M56.7486 31.6285C56.7502 31.2238 56.7526 30.8199 56.7542 30.4401C56.7574 30.0604 56.7542 29.704 56.7494 29.3975C56.7422 28.786 56.714 28.3692 56.714 28.3692C56.714 28.3692 56.5619 28.7602 56.4412 29.3685C56.3753 29.6718 56.3206 30.029 56.2779 30.4136C56.2369 30.7982 56.2087 31.2109 56.2063 31.6236C56.2055 31.6446 56.2071 31.6647 56.2071 31.6856C56.1379 31.6735 56.0687 31.6623 55.9963 31.6502C56.0044 31.4104 55.9778 31.1626 55.9078 30.9148C55.7437 30.3331 55.3841 29.8681 54.94 29.5905C54.9359 29.671 54.9319 29.7515 54.9279 29.8335C54.9223 29.9936 54.9166 30.1618 54.911 30.3275C55.1234 30.5399 55.2899 30.8151 55.3809 31.1369C55.4219 31.2825 55.4428 31.4281 55.4492 31.5713C55.2674 31.5472 55.0799 31.5231 54.8852 31.5013C54.8812 31.7725 54.8724 32.0444 54.882 32.3123C54.8828 32.367 54.8828 32.4201 54.8828 32.4749C55.0083 32.4781 55.129 32.4797 55.2465 32.4797C55.1548 32.6478 55.0341 32.7951 54.8901 32.9125C54.8909 32.9817 54.8909 33.0517 54.8949 33.1201C54.8981 33.215 54.9005 33.3076 54.9029 33.4001C55.3092 33.2231 55.6222 32.8916 55.8081 32.4781C55.9585 32.4757 56.0985 32.4716 56.2329 32.466C56.2409 32.5899 56.2474 32.7162 56.2602 32.8369C56.2755 33.03 56.3005 33.2166 56.3302 33.392C56.3568 33.5682 56.3833 33.734 56.4203 33.886C56.4847 34.1902 56.5571 34.4396 56.6174 34.6117C56.6762 34.7839 56.714 34.8813 56.714 34.8813C56.714 34.8813 56.7212 34.7759 56.7245 34.5956C56.7261 34.4162 56.7277 34.1604 56.7301 33.853C56.7357 33.2464 56.7422 32.4378 56.7486 31.6285Z" fill="#1E1E1E"/>
<path d="M57.492 32.0042C57.3762 31.9527 57.2128 31.902 57.0181 31.8529C57.0165 32.0396 57.0149 32.2254 57.0133 32.4081C57.6843 32.3268 57.9015 32.1836 57.492 32.0042Z" fill="#1E1E1E"/>
<path d="M54.6254 27.5253C54.6511 27.5317 54.6793 27.5374 54.7042 27.5438C54.7283 27.5494 54.7493 27.5551 54.7718 27.5615C54.7919 27.1954 54.804 26.9782 54.804 26.9782C54.804 26.9782 54.7251 27.1793 54.6254 27.5253Z" fill="#1E1E1E"/>
<path d="M52.7298 32.3671C53.1764 32.4025 53.635 32.4306 54.0927 32.4507C54.104 32.6889 54.1201 32.9238 54.1466 33.1507C54.1483 33.1684 54.1507 33.1845 54.1523 33.2022C53.5923 33.2392 53.0412 32.9101 52.7298 32.3671ZM54.6101 32.3124C54.6012 32.0372 54.6109 31.7572 54.6141 31.478C54.6093 31.1988 54.6245 30.9189 54.6286 30.6437C54.6382 30.3678 54.6479 30.0958 54.6567 29.8335C54.6825 29.3074 54.7066 28.8158 54.7267 28.3942C54.7315 28.3121 54.7356 28.2357 54.7396 28.1593C54.7171 28.1633 54.6962 28.1673 54.6736 28.1721C54.602 28.185 54.5272 28.1971 54.4516 28.2091C54.4411 28.2574 54.4299 28.3025 54.4194 28.3532C54.3542 28.6444 54.2963 28.9735 54.2448 29.3242C54.0107 29.2872 53.7693 29.2977 53.532 29.3645C53.1571 29.4699 52.8465 29.7 52.622 30.0057C52.6083 30.1843 52.5955 30.3597 52.5818 30.5431C52.5802 30.6437 52.5753 30.7451 52.5697 30.8473C52.7226 30.3975 53.0557 30.0419 53.507 29.9148C53.7291 29.852 53.9544 29.8528 54.1708 29.9043C54.1458 30.1369 54.1201 30.375 54.1056 30.6188C54.096 30.8827 54.0775 31.1506 54.0734 31.4193C53.5802 31.3742 53.0653 31.3396 52.5488 31.3147C52.5472 31.3734 52.5464 31.4322 52.5472 31.4909C52.5432 31.8071 52.5319 32.1249 52.5472 32.4363C52.5472 32.4507 52.5472 32.4636 52.548 32.4781C52.9125 33.1129 53.536 33.5151 54.1885 33.5369C54.2062 33.6672 54.2255 33.7951 54.2488 33.9182C54.289 34.1612 54.3252 34.3905 54.3808 34.5997C54.4298 34.8089 54.4797 34.9987 54.5248 35.1677C54.5747 35.3342 54.6278 35.4775 54.668 35.5965C54.7517 35.8323 54.804 35.965 54.804 35.965C54.804 35.965 54.7959 35.8202 54.7734 35.5724C54.7613 35.4501 54.746 35.3004 54.7291 35.1291C54.7195 34.9569 54.7082 34.763 54.6889 34.5538C54.668 34.3446 54.668 34.1153 54.6511 33.8756C54.6342 33.6358 54.6334 33.3816 54.6237 33.1201C54.6084 32.8586 54.6173 32.5875 54.6101 32.3124Z" fill="#1E1E1E"/>
<path d="M52.4572 26.9855C52.4202 27.0643 52.3824 27.1512 52.343 27.2445C52.3108 27.325 52.2754 27.4111 52.24 27.5004C52.2488 27.4988 52.2569 27.4955 52.2657 27.4939C52.3872 27.4754 52.5079 27.4497 52.6294 27.4296C52.6616 27.1914 52.6905 26.9814 52.7147 26.8165C52.7565 26.5309 52.7806 26.3676 52.7806 26.3676C52.7806 26.3676 52.6889 26.5076 52.561 26.7682C52.528 26.8334 52.4934 26.9058 52.4572 26.9855Z" fill="#1E1E1E"/>
<path d="M52.5868 35.6271C52.5594 35.4308 52.528 35.2104 52.4846 34.9746C52.4363 34.7397 52.4218 34.4782 52.3864 34.2071C52.3719 34.0711 52.3518 33.9327 52.3406 33.7895C52.3357 33.6455 52.3229 33.4999 52.3148 33.351C52.3076 33.2022 52.2907 33.0526 52.285 32.9005C52.2834 32.7468 52.281 32.5924 52.2754 32.4363C52.2609 32.1249 52.2714 31.8071 52.2762 31.4909C52.2698 31.1731 52.306 30.8561 52.3108 30.5432C52.3341 30.2294 52.3566 29.9221 52.3792 29.6236C52.4122 29.3259 52.4266 29.0346 52.4637 28.7611C52.4717 28.6911 52.4798 28.6243 52.4878 28.5559C52.2963 28.5881 52.1137 28.6485 51.9254 28.683C51.9021 28.6895 51.8787 28.6951 51.8554 28.7024C51.7838 28.9622 51.7235 29.2374 51.6663 29.5246C51.6084 29.8311 51.5642 30.1514 51.5247 30.478C51.5054 30.7419 51.4813 31.0098 51.4708 31.2785C51.1184 31.2729 50.7966 31.2737 50.5038 31.2809C50.5022 31.3348 50.4989 31.3896 50.4997 31.4435C50.4957 31.6679 50.4885 31.8932 50.4989 32.1137C50.7982 32.1603 51.1241 32.2046 51.47 32.2448C51.4741 32.3204 51.4789 32.396 51.4869 32.4717C51.5054 32.8007 51.5392 33.1242 51.598 33.4339C51.6245 33.5884 51.647 33.7412 51.6768 33.8893C51.7114 34.0373 51.7532 34.1805 51.7894 34.3197C51.8618 34.5981 51.9318 34.8604 52.0332 35.0921C52.1217 35.327 52.211 35.5378 52.2907 35.7245C52.384 35.9055 52.4741 36.0592 52.5457 36.1863C52.6905 36.4381 52.7806 36.5757 52.7806 36.5757C52.7806 36.5757 52.7549 36.4083 52.697 36.1275C52.6672 35.9876 52.6334 35.8178 52.5868 35.6271Z" fill="#1E1E1E"/>
<path d="M50.6058 35.0317C50.5801 34.9247 50.5495 34.7936 50.5093 34.648C50.4843 34.4967 50.4554 34.3269 50.4184 34.1443C50.3765 33.9633 50.3613 33.7613 50.3307 33.5513C50.317 33.446 50.3033 33.3381 50.2896 33.2279C50.2848 33.1161 50.2727 33.0035 50.2639 32.8884C50.2558 32.7733 50.243 32.6567 50.2381 32.5384C50.2373 32.4194 50.2341 32.2987 50.2285 32.178C50.2124 31.9366 50.2245 31.6896 50.2285 31.4434C50.2229 31.1972 50.2486 30.9511 50.2566 30.7081C50.28 30.4667 50.2897 30.2261 50.3154 29.9952C50.346 29.7651 50.3596 29.5391 50.3918 29.3283C50.3999 29.2687 50.4079 29.2124 50.416 29.1553H50.4152C50.276 29.214 50.1392 29.2615 50.0249 29.3138C50.0072 29.3218 49.9919 29.3283 49.9751 29.3355C49.9252 29.5238 49.8825 29.7209 49.8439 29.9277C49.8021 30.165 49.7618 30.412 49.7353 30.6638C49.7224 30.8803 49.6991 31.0999 49.6919 31.3211C49.5221 31.3348 49.3725 31.3525 49.2461 31.3726C49.2429 31.5344 49.2381 31.6961 49.2486 31.8554C49.3765 31.8932 49.5261 31.9302 49.6943 31.9664C49.6975 32.0452 49.6983 32.1241 49.7055 32.2021C49.7152 32.4564 49.7482 32.705 49.79 32.9447C49.8093 33.0638 49.8254 33.1821 49.8479 33.2963C49.8769 33.4098 49.9051 33.5208 49.9332 33.6286C49.9879 33.8434 50.041 34.0462 50.1175 34.2248C50.185 34.4066 50.2526 34.5707 50.313 34.7139C50.3846 34.8539 50.4514 34.9738 50.5061 35.0712C50.6155 35.2675 50.6823 35.3753 50.6823 35.3753C50.6823 35.3753 50.6573 35.2473 50.6058 35.0317Z" fill="#1E1E1E"/>
<path d="M50.2327 28.4836C50.3123 28.4119 50.396 28.3412 50.4893 28.2768C50.5086 28.2615 50.5312 28.2486 50.5521 28.2333C50.577 28.0773 50.6003 27.9405 50.6204 27.8287C50.6599 27.609 50.6824 27.4843 50.6824 27.4843C50.6824 27.4843 50.4555 27.8576 50.2327 28.4836Z" fill="#1E1E1E"/>
<path d="M49.1449 33.689C49.1964 33.7871 49.2423 33.8732 49.2793 33.944C49.3541 34.084 49.4008 34.162 49.4008 34.162C49.4008 34.162 49.3759 34.0736 49.3276 33.9231C49.3034 33.8483 49.2737 33.7582 49.2391 33.6544C49.2149 33.5466 49.1892 33.4259 49.1562 33.2972C49.1192 33.1684 49.1007 33.0244 49.0749 32.8748C49.0621 32.7991 49.0492 32.7219 49.0363 32.643C49.0283 32.5634 49.0202 32.4822 49.0122 32.3993C49.0049 32.3164 48.9937 32.2327 48.9881 32.1475C48.9848 32.0622 48.9816 31.9761 48.9776 31.8892C48.9744 31.8466 48.9752 31.8039 48.9744 31.7613C48.9768 31.7621 48.9792 31.7629 48.9816 31.7637C48.9768 31.6535 48.9744 31.5424 48.9752 31.4314H48.9736C48.9744 31.4081 48.9744 31.3839 48.9752 31.3606C48.9712 31.1828 48.9929 31.0058 48.9993 30.8312C49.0186 30.6582 49.0299 30.4853 49.0524 30.3203C49.0951 29.9889 49.1457 29.6799 49.198 29.4168C49.2511 29.1529 49.297 28.9317 49.338 28.7796C49.3783 28.626 49.4008 28.5383 49.4008 28.5383C49.4008 28.5383 49.2198 28.856 49.0484 29.3774C48.9607 29.6365 48.8802 29.9462 48.8167 30.2833C48.7869 30.4523 48.7596 30.6277 48.7394 30.8071C48.7282 30.9873 48.7032 31.1699 48.7041 31.3542C48.7032 31.5376 48.7 31.721 48.7161 31.9021C48.7234 32.0831 48.7451 32.2601 48.7756 32.4299C48.7893 32.5151 48.803 32.5988 48.8159 32.6801C48.8368 32.7613 48.8569 32.8394 48.877 32.9166C48.9156 33.0695 48.9527 33.2135 49.0066 33.3406C49.0548 33.4701 49.1015 33.5868 49.1449 33.689Z" fill="#1E1E1E"/>
<path d="M72.9015 36.5564C72.7913 36.677 72.6674 36.7977 72.5282 36.9136C72.2498 37.1453 71.9127 37.3569 71.5081 37.5097C71.5081 37.5097 75.2556 37.8147 78.6468 38.6289C78.6468 38.6289 78.9855 37.6964 79.0193 36.3399C79.0193 36.3399 76.5357 36.0841 73.6643 35.3455C73.6643 35.3455 73.4543 35.9521 72.9015 36.5564Z" fill="#1E1E1E"/>
<path d="M70.5643 15.8891C70.5643 15.8891 73.6956 20.4976 74.6016 26.4167C74.7102 27.1271 74.7866 27.856 74.822 28.5986C74.8695 29.5882 74.8429 30.6019 74.7214 31.6253C74.7214 31.6253 76.5639 31.9519 78.0442 32.0992C78.0442 32.0992 77.259 19.586 70.5643 15.8891Z" fill="#1E1E1E"/>
<path d="M4.352 71.7539C3.86133 71.7539 3.43467 71.5725 3.072 71.2099C2.70933 70.8472 2.528 70.4205 2.528 69.9299V50.2179C2.528 49.7272 2.70933 49.3005 3.072 48.9379C3.43467 48.5752 3.86133 48.3939 4.352 48.3939H5.152C5.70667 48.3939 6.21867 48.5432 6.688 48.8419C7.15733 49.1405 7.49867 49.5352 7.712 50.0259L13.312 62.1219C13.312 62.1432 13.3227 62.1539 13.344 62.1539C13.3653 62.1539 13.376 62.1432 13.376 62.1219L18.976 50.0259C19.1893 49.5352 19.5307 49.1405 20 48.8419C20.4693 48.5432 20.9813 48.3939 21.536 48.3939H22.464C22.9547 48.3939 23.3813 48.5752 23.744 48.9379C24.1067 49.3005 24.288 49.7272 24.288 50.2179V69.9299C24.288 70.4205 24.1067 70.8472 23.744 71.2099C23.3813 71.5725 22.9547 71.7539 22.464 71.7539H21.76C21.2693 71.7539 20.8427 71.5725 20.48 71.2099C20.1173 70.8472 19.936 70.4205 19.936 69.9299V56.0099C19.936 55.9885 19.9253 55.9779 19.904 55.9779C19.8827 55.9779 19.872 55.9885 19.872 56.0099L16.032 64.2339C15.7973 64.7245 15.4347 65.1299 14.944 65.4499C14.4747 65.7485 13.9733 65.8979 13.44 65.8979H13.248C12.7147 65.8979 12.2027 65.7485 11.712 65.4499C11.2427 65.1299 10.8907 64.7245 10.656 64.2339L6.816 56.0099C6.816 55.9885 6.80533 55.9779 6.784 55.9779C6.76267 55.9779 6.752 55.9885 6.752 56.0099V69.9299C6.752 70.4205 6.57067 70.8472 6.208 71.2099C5.84533 71.5725 5.41867 71.7539 4.928 71.7539H4.352ZM29.2445 71.7539C28.7538 71.7539 28.3272 71.5725 27.9645 71.2099C27.6018 70.8472 27.4205 70.4205 27.4205 69.9299V56.9379C27.4205 56.4472 27.6018 56.0205 27.9645 55.6579C28.3272 55.2952 28.7538 55.1139 29.2445 55.1139H30.0765C30.5672 55.1139 30.9938 55.2952 31.3565 55.6579C31.7192 56.0205 31.9005 56.4472 31.9005 56.9379V69.9299C31.9005 70.4205 31.7192 70.8472 31.3565 71.2099C30.9938 71.5725 30.5672 71.7539 30.0765 71.7539H29.2445ZM29.2445 51.5939C28.7538 51.5939 28.3272 51.4125 27.9645 51.0499C27.6018 50.6872 27.4205 50.2605 27.4205 49.7699V49.5779C27.4205 49.0872 27.6018 48.6605 27.9645 48.2979C28.3272 47.9352 28.7538 47.7539 29.2445 47.7539H30.0765C30.5672 47.7539 30.9938 47.9352 31.3565 48.2979C31.7192 48.6605 31.9005 49.0872 31.9005 49.5779V49.7699C31.9005 50.2605 31.7192 50.6872 31.3565 51.0499C30.9938 51.4125 30.5672 51.5939 30.0765 51.5939H29.2445ZM36.537 71.7539C36.0463 71.7539 35.6197 71.5725 35.257 71.2099C34.8943 70.8472 34.713 70.4205 34.713 69.9299V56.9379C34.713 56.4472 34.8943 56.0205 35.257 55.6579C35.6197 55.2952 36.0463 55.1139 36.537 55.1139H36.953C37.465 55.1139 37.8917 55.2952 38.233 55.6579C38.5957 55.9992 38.7877 56.4259 38.809 56.9379V57.1619C38.809 57.1832 38.8197 57.1939 38.841 57.1939C38.8623 57.1939 38.8837 57.1832 38.905 57.1619C40.3557 55.5832 42.0517 54.7939 43.993 54.7939C45.9343 54.7939 47.3423 55.3485 48.217 56.4579C49.113 57.5459 49.561 59.3699 49.561 61.9299V69.9299C49.561 70.4205 49.3797 70.8472 49.017 71.2099C48.6543 71.5725 48.2277 71.7539 47.737 71.7539H47.193C46.7023 71.7539 46.2757 71.5725 45.913 71.2099C45.5717 70.8472 45.401 70.4205 45.401 69.9299V62.2499C45.401 60.6499 45.1877 59.5619 44.761 58.9859C44.3557 58.3885 43.6197 58.0899 42.553 58.0899C41.6783 58.0899 40.8677 58.4632 40.121 59.2099C39.3743 59.9565 39.001 60.7565 39.001 61.6099V69.9299C39.001 70.4205 38.8197 70.8472 38.457 71.2099C38.0943 71.5725 37.6677 71.7539 37.177 71.7539H36.537ZM58.0308 57.7699C56.9427 57.7699 56.1001 58.0792 55.5027 58.6979C54.9268 59.2952 54.5641 60.2659 54.4148 61.6099C54.4148 61.7805 54.5001 61.8659 54.6708 61.8659H60.9427C61.1134 61.8659 61.1988 61.7805 61.1988 61.6099C61.1134 59.0499 60.0574 57.7699 58.0308 57.7699ZM58.8308 72.0739C56.0361 72.0739 53.8814 71.3485 52.3667 69.8979C50.8734 68.4259 50.1267 66.2712 50.1267 63.4339C50.1267 60.6179 50.7987 58.4739 52.1427 57.0019C53.4867 55.5299 55.4281 54.7939 57.9668 54.7939C62.7028 54.7939 65.1348 57.4819 65.2628 62.8579C65.2841 63.3699 65.1028 63.7965 64.7188 64.1379C64.3348 64.4792 63.8868 64.6499 63.3748 64.6499H54.6388C54.4468 64.6499 54.3721 64.7459 54.4148 64.9379C54.5641 66.3672 55.0334 67.4125 55.8228 68.0739C56.6334 68.7139 57.8067 69.0339 59.3428 69.0339C60.3028 69.0339 61.3694 68.8739 62.5428 68.5539C62.9268 68.4472 63.2788 68.5112 63.5988 68.7459C63.9401 68.9805 64.1108 69.3005 64.1108 69.7059C64.1108 70.1965 63.9614 70.6339 63.6628 71.0179C63.3854 71.3805 63.0121 71.6045 62.5428 71.6899C61.3481 71.9459 60.1108 72.0739 58.8308 72.0739ZM68.2675 71.7539C67.7768 71.7539 67.3502 71.5725 66.9875 71.2099C66.6462 70.8472 66.4755 70.4205 66.4755 69.9299V50.2179C66.4755 49.7272 66.6462 49.3005 66.9875 48.9379C67.3502 48.5752 67.7768 48.3939 68.2675 48.3939H78.8275C79.3182 48.3939 79.7448 48.5752 80.1075 48.9379C80.4702 49.3005 80.6515 49.7272 80.6515 50.2179C80.6515 50.7085 80.4702 51.1352 80.1075 51.4979C79.7448 51.8392 79.3182 52.0099 78.8275 52.0099H71.2115C71.0408 52.0099 70.9555 52.1059 70.9555 52.2979V57.8979C70.9555 58.0685 71.0408 58.1539 71.2115 58.1539H78.2835C78.7528 58.1539 79.1582 58.3245 79.4995 58.6659C79.8408 58.9859 80.0115 59.3912 80.0115 59.8819C80.0115 60.3725 79.8408 60.7885 79.4995 61.1299C79.1582 61.4499 78.7528 61.6099 78.2835 61.6099H71.2115C71.0408 61.6099 70.9555 61.6952 70.9555 61.8659V69.9299C70.9555 70.4205 70.7742 70.8472 70.4115 71.2099C70.0488 71.5725 69.6222 71.7539 69.1315 71.7539H68.2675ZM85.1295 71.7539C84.6388 71.7539 84.2122 71.5725 83.8495 71.2099C83.4868 70.8472 83.3055 70.4205 83.3055 69.9299V49.5779C83.3055 49.0872 83.4868 48.6605 83.8495 48.2979C84.2122 47.9352 84.6388 47.7539 85.1295 47.7539H85.9615C86.4522 47.7539 86.8788 47.9352 87.2415 48.2979C87.6042 48.6605 87.7855 49.0872 87.7855 49.5779V69.9299C87.7855 70.4205 87.6042 70.8472 87.2415 71.2099C86.8788 71.5725 86.4522 71.7539 85.9615 71.7539H85.1295ZM100.39 59.2419C99.7713 58.3459 98.8327 57.8979 97.574 57.8979C96.3153 57.8979 95.366 58.3459 94.726 59.2419C94.1073 60.1165 93.798 61.5139 93.798 63.4339C93.798 65.3539 94.1073 66.7619 94.726 67.6579C95.366 68.5325 96.3153 68.9699 97.574 68.9699C98.8327 68.9699 99.7713 68.5325 100.39 67.6579C101.03 66.7619 101.35 65.3539 101.35 63.4339C101.35 61.5139 101.03 60.1165 100.39 59.2419ZM103.526 69.8339C102.118 71.3272 100.134 72.0739 97.574 72.0739C95.014 72.0739 93.0193 71.3272 91.59 69.8339C90.182 68.3192 89.478 66.1859 89.478 63.4339C89.478 60.6819 90.182 58.5592 91.59 57.0659C93.0193 55.5512 95.014 54.7939 97.574 54.7939C100.134 54.7939 102.118 55.5512 103.526 57.0659C104.955 58.5592 105.67 60.6819 105.67 63.4339C105.67 66.1859 104.955 68.3192 103.526 69.8339ZM108.533 69.9939L105.333 56.8739C105.226 56.4259 105.311 56.0205 105.589 55.6579C105.887 55.2952 106.261 55.1139 106.709 55.1139H107.509C108.042 55.1139 108.511 55.2845 108.917 55.6259C109.322 55.9672 109.567 56.3939 109.653 56.9059L111.637 68.2019C111.637 68.2232 111.647 68.2339 111.669 68.2339C111.711 68.2339 111.733 68.2232 111.733 68.2019L113.749 56.9059C113.855 56.3939 114.111 55.9672 114.517 55.6259C114.922 55.2845 115.381 55.1139 115.893 55.1139H117.493C118.026 55.1139 118.495 55.2845 118.901 55.6259C119.306 55.9672 119.551 56.3939 119.637 56.9059L121.653 68.2019C121.653 68.2232 121.674 68.2339 121.717 68.2339C121.738 68.2339 121.749 68.2232 121.749 68.2019L123.733 56.9059C123.839 56.3939 124.095 55.9672 124.501 55.6259C124.906 55.2845 125.365 55.1139 125.877 55.1139H126.549C127.018 55.1139 127.391 55.2952 127.669 55.6579C127.967 56.0205 128.053 56.4259 127.925 56.8739L124.725 69.9939C124.597 70.5059 124.319 70.9325 123.893 71.2739C123.487 71.5939 123.018 71.7539 122.485 71.7539H120.885C120.373 71.7539 119.914 71.5832 119.509 71.2419C119.103 70.9005 118.847 70.4739 118.741 69.9619L116.661 58.9859C116.661 58.9645 116.65 58.9539 116.629 58.9539C116.607 58.9539 116.597 58.9645 116.597 58.9859L114.517 69.9619C114.431 70.4739 114.186 70.9005 113.781 71.2419C113.375 71.5832 112.906 71.7539 112.373 71.7539H110.773C110.261 71.7539 109.791 71.5939 109.365 71.2739C108.938 70.9325 108.661 70.5059 108.533 69.9939Z" fill="#1E1E1E"/>
</svg>
