<svg width="49" height="34" viewBox="0 0 49 34" fill="none" xmlns="http://www.w3.org/2000/svg">
<path d="M26.716 15.6061C28.5866 15.6061 30.3806 14.863 31.7033 13.5403C33.026 12.2176 33.7691 10.4236 33.7691 8.55303C33.7691 6.68245 33.026 4.88849 31.7033 3.56579C30.3806 2.24309 28.5866 1.5 26.716 1.5C24.8455 1.5 23.0515 2.24309 21.7288 3.56579C20.4061 4.88849 19.663 6.68245 19.663 8.55303C19.663 10.4236 20.4061 12.2176 21.7288 13.5403C23.0515 14.863 24.8455 15.6061 26.716 15.6061ZM26.716 15.6061C29.5556 15.6061 32.0369 16.6781 33.8015 18.4597M26.716 15.6061C21.0736 15.6061 16.8418 19.8379 16.8418 25.4803M19.663 32.5334H26.716M47.8751 21.2485L43.6433 17.0167L35.1797 25.4803M40.1168 20.5432L44.3486 24.775M29.5373 27.5962C29.5376 28.5319 29.9097 29.4291 30.5716 30.0904C31.2334 30.7518 32.1309 31.1231 33.0666 31.1227C34.0023 31.1224 34.8995 30.7503 35.5608 30.0884C36.2222 29.4266 36.5935 28.5291 36.5931 27.5934C36.5927 26.6577 36.2207 25.7605 35.5588 25.0992C34.8969 24.4378 33.9994 24.0665 33.0638 24.0669C32.1281 24.0673 31.2309 24.4393 30.5696 25.1012C29.9082 25.7631 29.5369 26.6606 29.5373 27.5962Z" stroke="black" stroke-width="2"/>
<circle cx="13.5" cy="12" r="4.5" fill="#D9D9D9"/>
<circle cx="5.5" cy="23" r="5.5" fill="#D9D9D9"/>
<path d="M14.25 31.75H16.25V31.25H14.25V31.75ZM18.775 30.6445L20.894 28.525L20.5375 28.168L18.775 29.943L18.0625 29.231L17.7185 29.5875L18.775 30.6445ZM14.25 29.75H16.25V29.25H14.25V29.75ZM14.25 27.75H16.25V27.25H14.25V27.75ZM13 33.5V25.5H22V33.5H13Z" fill="black"/>
</svg>
