<svg width="42" height="34" viewBox="0 0 42 34" fill="none" xmlns="http://www.w3.org/2000/svg">
<path d="M27.592 15.0977C29.4626 15.0977 31.2566 14.3546 32.5793 13.0319C33.902 11.7092 34.6451 9.91525 34.6451 8.04467C34.6451 6.17409 33.902 4.38012 32.5793 3.05742C31.2566 1.73472 29.4626 0.991638 27.592 0.991638C25.7214 0.991638 23.9275 1.73472 22.6048 3.05742C21.2821 4.38012 20.539 6.17409 20.539 8.04467C20.539 9.91525 21.2821 11.7092 22.6048 13.0319C23.9275 14.3546 25.7214 15.0977 27.592 15.0977ZM27.592 15.0977C30.4316 15.0977 32.9128 16.1698 34.6775 17.9514M27.592 15.0977C21.9496 15.0977 17.7178 19.3295 17.7178 24.972V32.025H20.539H27.592" stroke="black" stroke-width="2"/>
<circle cx="14.3755" cy="11.4916" r="4.5" fill="#D9D9D9"/>
<circle cx="6.37549" cy="22.4916" r="5.5" fill="#D9D9D9"/>
<path fill-rule="evenodd" clip-rule="evenodd" d="M35.3757 19.675C35.3757 19.6308 35.3581 19.5884 35.3268 19.5572C35.2956 19.5259 35.2532 19.5084 35.209 19.5084H30.5423C30.0561 19.5084 29.5898 19.7015 29.246 20.0453C28.9021 20.3891 28.709 20.8555 28.709 21.3417V30.675C28.709 31.1613 28.9021 31.6276 29.246 31.9714C29.5898 32.3152 30.0561 32.5084 30.5423 32.5084H37.209C37.6952 32.5084 38.1615 32.3152 38.5053 31.9714C38.8492 31.6276 39.0423 31.1613 39.0423 30.675V24.1064C39.0423 24.0622 39.0248 24.0198 38.9935 23.9885C38.9622 23.9573 38.9199 23.9397 38.8757 23.9397H35.8757C35.743 23.9397 35.6159 23.887 35.5221 23.7932C35.4283 23.6995 35.3757 23.5723 35.3757 23.4397V19.675ZM35.8757 26.175C36.0083 26.175 36.1354 26.2277 36.2292 26.3215C36.323 26.4152 36.3757 26.5424 36.3757 26.675C36.3757 26.8076 36.323 26.9348 36.2292 27.0286C36.1354 27.1224 36.0083 27.175 35.8757 27.175H31.8757C31.743 27.175 31.6159 27.1224 31.5221 27.0286C31.4283 26.9348 31.3757 26.8076 31.3757 26.675C31.3757 26.5424 31.4283 26.4152 31.5221 26.3215C31.6159 26.2277 31.743 26.175 31.8757 26.175H35.8757ZM35.8757 28.8417C36.0083 28.8417 36.1354 28.8944 36.2292 28.9881C36.323 29.0819 36.3757 29.2091 36.3757 29.3417C36.3757 29.4743 36.323 29.6015 36.2292 29.6952C36.1354 29.789 36.0083 29.8417 35.8757 29.8417H31.8757C31.743 29.8417 31.6159 29.789 31.5221 29.6952C31.4283 29.6015 31.3757 29.4743 31.3757 29.3417C31.3757 29.2091 31.4283 29.0819 31.5221 28.9881C31.6159 28.8944 31.743 28.8417 31.8757 28.8417H35.8757Z" fill="black"/>
<path d="M36.3755 19.891C36.3755 19.7684 36.5042 19.6904 36.5995 19.767C36.6804 19.8324 36.7522 19.9084 36.8148 19.995L38.8235 22.793C38.8688 22.857 38.8195 22.9397 38.7408 22.9397H36.5422C36.498 22.9397 36.4556 22.9221 36.4243 22.8909C36.393 22.8596 36.3755 22.8172 36.3755 22.773V19.891Z" fill="black"/>
</svg>
